<svg width="35px" height="35px" viewBox="0 0 35 35" version="1.1" fill="#B2B2B2" xmlns="http://www.w3.org/2000/svg" xmlns:xlink="http://www.w3.org/1999/xlink">
    <g id="UI" stroke="none" stroke-width="1" fill-rule="evenodd">
        <g id="Account-dropdown" transform="translate(-18.000000, -102.000000)" fill-rule="nonzero">
            <g id="Group-29" transform="translate(0.000000, -1.000000)">
                <g id="Group-28">
                    <g id="Rectangle">
                        <g id="Group-21" transform="translate(18.000000, 100.000000)">
                            <g id="Group-24" transform="translate(0.000000, 3.000000)">
                                <g id="Group-23">
                                    <g id="Group-2">
                                        <path d="M17.5,2 C8.93958638,2 2,8.93958638 2,17.5 C2,26.0604136 8.93958638,33 17.5,33 C26.0604136,33 33,26.0604136 33,17.5 C33,8.93958638 26.0604136,2 17.5,2 Z M17.5,0 C27.1649831,-1.7754286e-15 35,7.83501688 35,17.5 C35,27.1649831 27.1649831,35 17.5,35 C7.83501688,35 1.18361906e-15,27.1649831 0,17.5 C-1.18361906e-15,7.83501688 7.83501688,1.7754286e-15 17.5,0 Z" id="Rectangle" ></path>
                                        <g id="Group-16" transform="translate(11.000000, 8.000000)">
                                            <path d="M5.69893375,8.90047851 C3.28880754,9.20900647 1.85,10.8949554 1.85,12.9372661 L1.85,14.6849037 C1.85,14.9302729 2.08298617,15.15 2.39445376,15.15 L10.4,15.15 C10.8142136,15.15 11.15,14.8142136 11.15,14.4 L11.15,12.9372661 C11.15,10.8933775 9.73155869,9.21539052 7.33733202,8.90240577 C7.07355806,8.95195619 6.8014216,8.977876 6.5232292,8.977876 C6.24145207,8.977876 5.96588796,8.95128389 5.69893375,8.90047851 Z M3.50205679,7.76883248 C2.67279297,6.97720209 2.15632099,5.86283444 2.15632099,4.627876 C2.15632099,2.22451789 4.11236695,0.277876 6.5232292,0.277876 C8.93409145,0.277876 10.8901374,2.22451789 10.8901374,4.627876 C10.8901374,5.86741088 10.3698305,6.98545955 9.53516962,7.7776199 C11.6117336,8.73476106 12.85,10.6871728 12.85,12.9372661 L12.85,14.4 C12.85,15.7530976 11.7530976,16.85 10.4,16.85 L6.62362954,16.85 L2.39445376,16.85 C1.16565026,16.85 0.15,15.8921498 0.15,14.6849037 L0.15,12.9372661 C0.15,10.6829085 1.40635413,8.7235506 3.50205679,7.76883248 Z M5.80309223,7.18016043 C6.03356664,7.16021856 6.26957606,7.15 6.51082948,7.15 C6.75873466,7.15 7.00102456,7.16078263 7.23739274,7.18181338 C8.36397978,6.8714809 9.19013741,5.84498331 9.19013741,4.627876 C9.19013741,3.16524086 7.99703649,1.977876 6.5232292,1.977876 C5.04942191,1.977876 3.85632099,3.16524086 3.85632099,4.627876 C3.85632099,5.84283117 4.6795595,6.8678501 5.80309223,7.18016043 Z" id="Oval"></path>
                                        </g>
                                    </g>
                                </g>
                            </g>
                        </g>
                    </g>
                </g>
            </g>
        </g>
    </g>
</svg>