<svg width="35px" height="35px" viewBox="0 0 35 35" version="1.1" fill="#B1B1B1" xmlns="http://www.w3.org/2000/svg" xmlns:xlink="http://www.w3.org/1999/xlink">
    <g id="UI" stroke="none" stroke-width="1"  fill-rule="evenodd">
        <g id="Account-dropdown" transform="translate(-18.000000, -29.000000)" fill-rule="nonzero">
            <g id="Group-29" transform="translate(0.000000, -1.000000)">
                <g id="Group-28">
                    <g id="Rectangle">
                        <g id="Group-21" transform="translate(18.000000, 27.000000)">
                            <g id="Group-24" transform="translate(0.000000, 3.000000)">
                                <g id="Group-23">
                                    <g id="Group">
                                        <path d="M17.5,2 C8.93958638,2 2,8.93958638 2,17.5 C2,26.0604136 8.93958638,33 17.5,33 C26.0604136,33 33,26.0604136 33,17.5 C33,8.93958638 26.0604136,2 17.5,2 Z M17.5,0 C27.1649831,-1.7754286e-15 35,7.83501688 35,17.5 C35,27.1649831 27.1649831,35 17.5,35 C7.83501688,35 1.18361906e-15,27.1649831 0,17.5 C-1.18361906e-15,7.83501688 7.83501688,1.7754286e-15 17.5,0 Z" id="Rectangle"></path>
                                        <g id="Group-15" transform="translate(10.000000, 10.000000)" >
                                            <path d="M1.92699995,0.27900002 L5.27300005,0.27900002 C6.18316528,0.27900002 6.92099998,1.01683472 6.92099998,1.92699995 L6.92099998,5.27300005 C6.92099998,6.18316528 6.18316528,6.92099998 5.27300005,6.92099998 L1.92699995,6.92099998 C1.01683472,6.92099998 0.27900002,6.18316528 0.27900002,5.27300005 L0.27900002,1.92699995 C0.27900002,1.01683472 1.01683472,0.27900002 1.92699995,0.27900002 Z M1.92699995,1.72099998 C1.81322931,1.72099998 1.72099998,1.81322931 1.72099998,1.92699995 L1.72099998,5.27300005 C1.72099998,5.38677069 1.81322931,5.47900002 1.92699995,5.47900002 L5.27300005,5.47900002 C5.38677069,5.47900002 5.47900002,5.38677069 5.47900002,5.27300005 L5.47900002,1.92699995 C5.47900002,1.81322931 5.38677069,1.72099998 5.27300005,1.72099998 L1.92699995,1.72099998 Z M9.72699995,1.72099998 C9.61322931,1.72099998 9.52099998,1.81322931 9.52099998,1.92699995 L9.52099998,5.27300005 C9.52099998,5.38677069 9.61322931,5.47900002 9.72699995,5.47900002 L13.0730001,5.47900002 C13.1867707,5.47900002 13.279,5.38677069 13.279,5.27300005 L13.279,1.92699995 C13.279,1.81322931 13.1867707,1.72099998 13.0730001,1.72099998 L9.72699995,1.72099998 Z M9.72699995,0.27900002 L13.0730001,0.27900002 C13.9831653,0.27900002 14.721,1.01683472 14.721,1.92699995 L14.721,5.27300005 C14.721,6.18316528 13.9831653,6.92099998 13.0730001,6.92099998 L9.72699995,6.92099998 C8.81683472,6.92099998 8.07900002,6.18316528 8.07900002,5.27300005 L8.07900002,1.92699995 C8.07900002,1.01683472 8.81683472,0.27900002 9.72699995,0.27900002 Z M9.72699995,9.52099998 C9.61322931,9.52099998 9.52099998,9.61322931 9.52099998,9.72699995 L9.52099998,13.0730001 C9.52099998,13.1867707 9.61322931,13.279 9.72699995,13.279 L13.0730001,13.279 C13.1867707,13.279 13.279,13.1867707 13.279,13.0730001 L13.279,9.72699995 C13.279,9.61322931 13.1867707,9.52099998 13.0730001,9.52099998 L9.72699995,9.52099998 Z M9.72699995,8.07900002 L13.0730001,8.07900002 C13.9831653,8.07900002 14.721,8.81683472 14.721,9.72699995 L14.721,13.0730001 C14.721,13.9831653 13.9831653,14.721 13.0730001,14.721 L9.72699995,14.721 C8.81683472,14.721 8.07900002,13.9831653 8.07900002,13.0730001 L8.07900002,9.72699995 C8.07900002,8.81683472 8.81683472,8.07900002 9.72699995,8.07900002 Z M1.92699995,9.52099998 C1.81322931,9.52099998 1.72099998,9.61322931 1.72099998,9.72699995 L1.72099998,13.0730001 C1.72099998,13.1867707 1.81322931,13.279 1.92699995,13.279 L5.27300005,13.279 C5.38677069,13.279 5.47900002,13.1867707 5.47900002,13.0730001 L5.47900002,9.72699995 C5.47900002,9.61322931 5.38677069,9.52099998 5.27300005,9.52099998 L1.92699995,9.52099998 Z M1.92699995,8.07900002 L5.27300005,8.07900002 C6.18316528,8.07900002 6.92099998,8.81683472 6.92099998,9.72699995 L6.92099998,13.0730001 C6.92099998,13.9831653 6.18316528,14.721 5.27300005,14.721 L1.92699995,14.721 C1.01683472,14.721 0.27900002,13.9831653 0.27900002,13.0730001 L0.27900002,9.72699995 C0.27900002,8.81683472 1.01683472,8.07900002 1.92699995,8.07900002 Z" id="Rectangle"></path>
                                        </g>
                                    </g>
                                </g>
                            </g>
                        </g>
                    </g>
                </g>
            </g>
        </g>
    </g>
</svg>