<svg viewBox="0 0 512 512" fill="none" xmlns="http://www.w3.org/2000/svg">
<circle cx="255" cy="257" r="255" fill="#EDF2F7"/>
<path d="M255.13 1.51001C114.32 1.51001 0.130005 115.66 0.130005 256.51C0.130005 397.36 114.28 512.51 255.13 512.51C395.98 512.51 510.13 397.36 510.13 256.51C510.13 115.66 395.94 1.51001 255.13 1.51001ZM347.98 134.66C358.098 128.818 369.72 126.108 381.378 126.872C393.036 127.636 404.206 131.839 413.475 138.951C422.744 146.063 429.696 155.764 433.451 166.827C437.207 177.89 437.597 189.818 434.574 201.103C431.55 212.388 425.248 222.523 416.464 230.226C407.68 237.93 396.81 242.855 385.227 244.38C373.643 245.905 361.868 243.961 351.39 238.794C340.912 233.626 332.201 225.468 326.36 215.35C318.526 201.784 316.402 185.662 320.455 170.53C324.507 155.398 334.405 142.495 347.97 134.66H347.98ZM162.28 378.28C152.164 384.125 140.542 386.839 128.883 386.078C117.224 385.317 106.053 381.117 96.7823 374.007C87.5123 366.897 80.5568 357.198 76.7985 346.135C73.0401 335.073 72.6466 323.145 75.6678 311.859C78.6889 300.573 84.989 290.436 93.7713 282.731C102.554 275.025 113.424 270.098 125.007 268.57C136.59 267.043 148.366 268.985 158.845 274.15C169.324 279.316 178.037 287.473 183.88 297.59C191.715 311.155 193.84 327.276 189.79 342.408C185.739 357.54 175.844 370.443 162.28 378.28ZM183.88 215.34C178.039 225.458 169.328 233.616 158.85 238.784C148.372 243.951 136.596 245.895 125.013 244.37C113.43 242.845 102.56 237.92 93.7759 230.216C84.9922 222.513 78.69 212.378 75.6663 201.093C72.6426 189.808 73.0332 177.88 76.7888 166.817C80.5443 155.754 87.4961 146.053 96.765 138.941C106.034 131.829 117.204 127.626 128.862 126.862C140.52 126.098 152.142 128.808 162.26 134.65C175.827 142.483 185.727 155.385 189.781 170.517C193.836 185.65 191.713 201.773 183.88 215.34ZM255.11 456.84C243.427 456.84 232.006 453.376 222.292 446.885C212.578 440.394 205.007 431.169 200.536 420.375C196.066 409.581 194.896 397.704 197.175 386.246C199.454 374.788 205.08 364.262 213.341 356.001C221.602 347.74 232.128 342.114 243.586 339.835C255.044 337.556 266.921 338.726 277.715 343.196C288.509 347.667 297.734 355.238 304.225 364.953C310.716 374.667 314.18 386.087 314.18 397.77C314.183 413.435 307.963 428.459 296.889 439.538C285.816 450.618 270.795 456.845 255.13 456.85L255.11 456.84ZM217.74 253.48C217.74 246.087 219.932 238.86 224.04 232.713C228.147 226.566 233.985 221.775 240.815 218.945C247.646 216.116 255.161 215.376 262.412 216.818C269.663 218.261 276.324 221.821 281.552 227.048C286.779 232.276 290.339 238.937 291.782 246.188C293.224 253.439 292.484 260.954 289.655 267.785C286.825 274.615 282.034 280.453 275.887 284.56C269.74 288.668 262.513 290.86 255.12 290.86C245.206 290.86 235.698 286.922 228.688 279.912C221.678 272.902 217.74 263.394 217.74 253.48ZM255.12 174.23C243.437 174.23 232.017 170.766 222.304 164.276C212.59 157.785 205.019 148.56 200.547 137.767C196.076 126.974 194.906 115.098 197.184 103.64C199.463 92.1815 205.088 81.6562 213.348 73.3948C221.608 65.1333 232.132 59.5066 243.59 57.2262C255.048 54.9459 266.924 56.1142 277.718 60.5836C288.512 65.0529 297.738 72.6225 304.23 82.3352C310.722 92.0479 314.188 103.467 314.19 115.15C314.19 130.815 307.968 145.838 296.892 156.915C285.817 167.993 270.795 174.217 255.13 174.22L255.12 174.23ZM428.66 356.66C422.819 366.778 414.108 374.936 403.63 380.104C393.152 385.271 381.376 387.215 369.793 385.69C358.21 384.165 347.34 379.24 338.556 371.536C329.772 363.833 323.47 353.698 320.446 342.413C317.423 331.128 317.813 319.2 321.569 308.137C325.324 297.074 332.276 287.373 341.545 280.261C350.814 273.149 361.984 268.946 373.642 268.182C385.3 267.418 396.922 270.128 407.04 275.97C420.607 283.803 430.507 296.705 434.561 311.837C438.616 326.97 436.493 343.093 428.66 356.66Z" fill="#1A202C"/>
<path opacity="0.2" d="M17.37 269.42C17.37 128.61 131.52 14.42 272.37 14.42C325.515 14.3381 377.345 30.942 420.55 61.89C374.466 22.4867 315.803 0.874001 255.17 0.960003C114.36 0.960003 0.170017 115.11 0.170017 255.96C0.14109 296.553 9.81738 336.564 28.392 372.657C46.9667 408.751 73.9014 439.88 106.95 463.45C78.838 439.542 56.2644 409.804 40.7957 376.298C25.327 342.793 17.3335 306.324 17.37 269.42Z" fill="white"/>
<path opacity="0.2" d="M254.99 296.98C278.733 296.98 297.98 277.733 297.98 253.99C297.98 230.247 278.733 211 254.99 211C231.247 211 212 230.247 212 253.99C212 277.733 231.247 296.98 254.99 296.98Z" stroke="white" stroke-width="13" stroke-miterlimit="10"/>
</svg>
