<svg width="64" height="64" viewBox="0 0 64 64" fill="none" xmlns="http://www.w3.org/2000/svg">
<circle cx="32" cy="32" r="32" fill="#C4C4C4"/>
<circle cx="32.0513" cy="32.0513" r="2.66667" fill="white"/>
<circle cx="32.0513" cy="23.3333" r="2.66667" fill="white"/>
<ellipse cx="40.7693" cy="32.0513" rx="2.66667" ry="2.66667" fill="white"/>
<circle cx="38.1538" cy="38.1538" r="2.66667" fill="white"/>
<ellipse cx="38.1538" cy="25.9487" rx="2.66667" ry="2.66667" fill="white"/>
<circle cx="23.3334" cy="32.0513" r="2.66667" fill="white"/>
<ellipse cx="32.0513" cy="40.7692" rx="2.66667" ry="2.66667" fill="white"/>
<ellipse cx="25.9487" cy="38.1538" rx="2.66667" ry="2.66667" fill="white"/>
<circle cx="25.9487" cy="25.9487" r="2.66667" fill="white"/>
<path d="M34.8868 17.6666C33.6038 19.8889 30.3963 19.8889 29.1133 17.6667L23.3398 7.66666C22.0568 5.44444 23.6605 2.66666 26.2265 2.66666L37.7735 2.66666C40.3395 2.66666 41.9433 5.44444 40.6603 7.66666L34.8868 17.6666Z" fill="white"/>
<path d="M44.3382 23.7066C41.8596 24.3708 39.5916 22.1027 40.2557 19.6241L43.2443 8.4706C43.9084 5.99204 47.0066 5.16187 48.8211 6.97631L56.986 15.1413C58.8005 16.9557 57.9703 20.0539 55.4917 20.718L44.3382 23.7066Z" fill="white"/>
<path d="M46.3333 34.8867C44.1111 33.6037 44.1111 30.3962 46.3333 29.1132L56.3333 23.3397C58.5555 22.0567 61.3333 23.6605 61.3333 26.2265V37.7735C61.3333 40.3395 58.5556 41.9432 56.3333 40.6602L46.3333 34.8867Z" fill="white"/>
<path d="M40.0612 44.3382C39.3971 41.8596 41.6651 39.5916 44.1437 40.2557L55.2973 43.2443C57.7758 43.9084 58.606 47.0066 56.7916 48.8211L48.6266 56.986C46.8122 58.8005 43.7139 57.9703 43.0498 55.4917L40.0612 44.3382Z" fill="white"/>
<path d="M29.1071 46.7505C30.3901 44.5282 33.5976 44.5282 34.8806 46.7505L40.6541 56.7504C41.9371 58.9727 40.3334 61.7504 37.7674 61.7504H26.2204C23.6544 61.7504 22.0506 58.9727 23.3336 56.7504L29.1071 46.7505Z" fill="white"/>
<path d="M19.7908 40.2557C22.2694 39.5916 24.5375 41.8596 23.8733 44.3382L20.8847 55.4917C20.2206 57.9703 17.1224 58.8005 15.308 56.986L7.14301 48.8211C5.32857 47.0066 6.15873 43.9084 8.6373 43.2443L19.7908 40.2557Z" fill="white"/>
<path d="M17.6667 29.1132C19.8889 30.3962 19.8889 33.6037 17.6667 34.8867L7.66669 40.6602C5.44447 41.9432 2.66669 40.3395 2.66669 37.7735L2.66669 26.2265C2.66669 23.6605 5.44447 22.0567 7.66669 23.3397L17.6667 29.1132Z" fill="white"/>
<path d="M23.7067 19.6618C24.3708 22.1403 22.1027 24.4084 19.6242 23.7443L8.47063 20.7557C5.99207 20.0916 5.1619 16.9933 6.97634 15.1789L15.1413 7.01394C16.9557 5.19951 20.0539 6.02967 20.7181 8.50823L23.7067 19.6618Z" fill="white"/>
</svg>
