<?xml version="1.0" encoding="UTF-8" standalone="no"?><!DOCTYPE svg PUBLIC "-//W3C//DTD SVG 1.1//EN" "http://www.w3.org/Graphics/SVG/1.1/DTD/svg11.dtd"><svg width="100%" height="100%" viewBox="0 0 676 676" version="1.1" xmlns="http://www.w3.org/2000/svg" xmlns:xlink="http://www.w3.org/1999/xlink" xml:space="preserve" xmlns:serif="http://www.serif.com/" style="fill-rule:evenodd;clip-rule:evenodd;stroke-linejoin:round;stroke-miterlimit:2;"><path d="M676,338c0,120.33 -62.88,225.98 -157.58,285.87c-8.84,5.6 -17.953,10.783 -27.34,15.55c-2.12,1.09 -4.25,2.14 -6.4,3.17c-1.77,0.86 -3.56,1.7 -5.35,2.53c-18.593,8.576 -37.935,15.428 -57.78,20.47c-1.29,0.33 -2.59,0.65 -3.89,0.96c-0.97,0.24 -1.95,0.47 -2.93,0.69c-0.121,0.039 -0.245,0.069 -0.37,0.09c-2.01,0.47 -4.02,0.92 -6.05,1.33c-1.14,0.24 -2.28,0.48 -3.42,0.71c-0.69,0.15 -1.39,0.28 -2.08,0.41c-0.87,0.17 -1.73,0.33 -2.6,0.5c-0.48,0.1 -0.96,0.18 -1.45,0.26c-1.1,0.2 -2.2,0.4 -3.29,0.59c-1.86,0.32 -3.74,0.63 -5.61,0.91c-1.36,0.21 -2.71,0.41 -4.07,0.6c-1.6,0.23 -3.2,0.44 -4.81,0.64c-0.44,0.07 -0.88,0.12 -1.32,0.17c-0.57,0.07 -1.14,0.14 -1.71,0.21c-1.74,0.21 -3.5,0.4 -5.25,0.58c-1.14,0.12 -2.28,0.23 -3.42,0.33c-1.47,0.14 -2.94,0.26 -4.42,0.38c-1.8,0.14 -3.59,0.27 -5.4,0.38c-1.16,0.07 -2.32,0.14 -3.49,0.2c-2.98,0.16 -5.96,0.27 -8.96,0.35c-1.49,0.04 -2.99,0.07 -4.49,0.09l-0.03,0c-1.49,0.02 -2.99,0.03 -4.49,0.03c-0.058,0 -0.115,0 -0.173,0c-185.326,0 -337.827,-152.501 -337.827,-337.827c0,-0.058 0,-0.115 0,-0.173c0,-186.67 151.33,-338 338,-338c186.67,0 338,151.33 338,338Z" style="fill-rule:nonzero;"/><path d="M466.286,226.521c6.38,35.998 -7.705,68.593 -7.705,68.593c0,0 -24.43,-25.769 -30.81,-61.766c-6.381,-35.997 7.704,-68.592 7.704,-68.592c0,0 24.43,25.768 30.811,61.765Z" style="fill-opacity:0.2;fill-rule:nonzero;"/><path d="M181.853,180.179c48.876,-82.584 145.571,-86.433 145.571,-86.433c0,0 94.225,-12.049 154.669,113.727c56.339,117.234 134.094,230.426 12.518,257.87l-21.96,-68.35l-13.6,73.438c-17.31,1.245 -34.675,1.542 -52.018,0.889c-130.198,-4.203 -254.192,1.23 -250.2,-45.491c5.308,-62.108 -22.007,-166.188 25.02,-245.65Z" style="fill:#2f2e41;fill-rule:nonzero;"/><circle cx="336.946" cy="282.159" r="123.623" style="fill:#d0cde1;"/><path d="M396.468,350.839c0,0 -50.365,146.516 9.157,187.724c59.522,41.208 -96.151,68.68 -137.359,41.208c-41.208,-27.472 -73.258,-73.258 -73.258,-73.258c0,0 105.308,-105.309 82.415,-164.831l119.045,9.157Z" style="fill:#d0cde1;fill-rule:nonzero;"/><path d="M488.04,570.61l-8.71,74.51c-18.594,8.576 -37.935,15.428 -57.78,20.47c-1.29,0.33 -2.59,0.65 -3.89,0.96c-0.97,0.24 -1.95,0.47 -2.93,0.69c-0.121,0.039 -0.245,0.069 -0.37,0.09c-2.01,0.47 -4.02,0.92 -6.05,1.33c-1.14,0.24 -2.28,0.48 -3.42,0.71c-0.69,0.15 -1.39,0.28 -2.08,0.41c-0.87,0.17 -1.73,0.33 -2.6,0.5c-0.48,0.1 -0.96,0.18 -1.45,0.26c-1.1,0.2 -2.2,0.4 -3.29,0.59c-1.86,0.32 -3.74,0.63 -5.61,0.91c-1.36,0.21 -2.71,0.41 -4.07,0.6c-1.6,0.23 -3.2,0.44 -4.81,0.64c-0.44,0.07 -0.88,0.12 -1.32,0.17c-0.57,0.07 -1.14,0.14 -1.71,0.21c-1.74,0.21 -3.5,0.4 -5.25,0.58c-1.14,0.12 -2.28,0.23 -3.42,0.33c-1.47,0.14 -2.94,0.26 -4.42,0.38c-1.8,0.14 -3.59,0.27 -5.4,0.38c-1.16,0.07 -2.32,0.14 -3.49,0.2c-2.98,0.16 -5.96,0.27 -8.96,0.35c-1.49,0.04 -2.99,0.07 -4.49,0.09l-0.03,0c-1.49,0.02 -2.99,0.03 -4.49,0.03c-122.417,-0.038 -235.623,-66.519 -295.29,-173.41c15.073,-10.33 30.766,-19.724 46.99,-28.13c5.17,-2.61 12.18,-4.21 20.19,-5.03c18.09,-1.88 41.53,0.22 61.86,4.07c18.54,3.48 34.52,8.43 41.57,13.1c18.32,12.13 91.58,51.96 91.58,51.96c0,0 64.07,9.16 89.95,-9.92c0.01,0 0.01,-0.01 0.02,-0.01c6.1,-4.52 14.54,-4.55 23.85,-1.96c1.97,0.55 3.977,1.207 6.02,1.97c5.682,2.2 11.191,4.824 16.48,7.85c0.12,0.07 0.23,0.13 0.35,0.2c1.87,1.05 3.73,2.15 5.57,3.28c21.79,13.28 40.9,30.64 40.9,30.64Z" style="fill:#2f2e41;fill-rule:nonzero;"/><path d="M118.25,594.82c-2.96,-54.98 -6.32,-100.02 -8.36,-125.39c18.09,-1.88 41.53,0.22 61.86,4.07c16.55,33.16 53.85,109.7 88.18,193.44c-52.3,-12.396 -100.883,-37.126 -141.68,-72.12Z" style="fill:#2f2e41;fill-rule:nonzero;"/><path d="M439.96,536.27l1.22,0.63c-0.12,1.3 -0.41,2.1 -1.22,-0.63Z" style="fill:#2f2e41;fill-rule:nonzero;"/><path d="M441.57,536.69c0.01,0.14 0.03,0.29 0.04,0.43l-0.43,-0.22c0.01,-0.13 0.02,-0.27 0.04,-0.41c0.1,-1.75 -0.02,-3.82 0.35,0.2Z" style="fill:#2f2e41;fill-rule:nonzero;"/><path d="M518.42,623.87c-8.84,5.6 -17.953,10.783 -27.34,15.55c-2.12,1.09 -4.25,2.14 -6.4,3.17c-1.77,0.86 -3.56,1.7 -5.35,2.53c-18.593,8.576 -37.935,15.428 -57.78,20.47c14.41,-46.53 23.54,-92.47 20.06,-128.47l5.53,2.85l26.65,13.73c7.67,3.943 14.67,9.073 20.74,15.2c1.826,1.824 3.559,3.74 5.19,5.74c11.267,13.686 17.814,30.653 18.66,48.36c0.01,0.29 0.03,0.58 0.04,0.87Z" style="fill:#2f2e41;fill-rule:nonzero;"/><path d="M217.198,172.218l95.53,-50.04l59.937,9.3c43.353,6.727 78.386,39.432 88.074,82.221l11.208,49.501l-67.945,-2.614l-18.981,-44.289l0,43.559l-31.351,-1.206l-18.196,-70.51l-11.373,75.06l-111.453,-2.275l4.55,-88.707Z" style="fill:#2f2e41;fill-rule:nonzero;"/></svg>