<?xml version="1.0" encoding="UTF-8" standalone="no"?><!DOCTYPE svg PUBLIC "-//W3C//DTD SVG 1.1//EN" "http://www.w3.org/Graphics/SVG/1.1/DTD/svg11.dtd"><svg width="100%" height="100%" viewBox="0 0 676 676" version="1.1" xmlns="http://www.w3.org/2000/svg" xmlns:xlink="http://www.w3.org/1999/xlink" xml:space="preserve" xmlns:serif="http://www.serif.com/" style="fill-rule:evenodd;clip-rule:evenodd;stroke-linejoin:round;stroke-miterlimit:2;"><path d="M676,338c0.06,45.754 -9.202,91.044 -27.22,133.1l-1.12,2.58c-62.515,142.22 -215.283,224.035 -368.31,197.25c-2.03,-0.36 -4.057,-0.733 -6.08,-1.12c-20.907,-4.053 -41.379,-10.09 -61.14,-18.03c-3.21,-1.29 -6.397,-2.627 -9.56,-4.01c-2.16,-0.94 -4.32,-1.91 -6.46,-2.91c-119.318,-55.3 -196.04,-175.35 -196.11,-306.86c0,-186.67 151.33,-338 338,-338c186.67,0 338,151.33 338,338Z" style="fill-rule:nonzero;"/><path d="M221.714,241.521c-6.38,35.998 7.705,68.593 7.705,68.593c0,0 24.43,-25.769 30.81,-61.766c6.381,-35.997 -7.704,-68.592 -7.704,-68.592c0,0 -24.43,25.768 -30.811,61.765Z" style="fill-opacity:0.2;fill-rule:nonzero;"/><circle cx="337.306" cy="281.079" r="131.77" style="fill:#d0cde1;"/><path d="M285.833,381.965c0,0 16.472,78.239 16.472,86.474c0,8.236 78.238,45.296 78.238,45.296l70.003,-12.353l24.707,-74.121c0,0 -41.178,-61.767 -41.178,-86.474l-148.242,41.178Z" style="fill:#d0cde1;fill-rule:nonzero;"/><path d="M648.78,471.1l-1.12,2.58c-62.515,142.22 -215.283,224.035 -368.31,197.25c-2.03,-0.36 -4.057,-0.733 -6.08,-1.12c-20.907,-4.053 -41.379,-10.09 -61.14,-18.03c-3.21,-1.29 -6.397,-2.627 -9.56,-4.01c-2.16,-0.94 -4.32,-1.91 -6.46,-2.91c-19.397,-8.986 -37.897,-19.795 -55.25,-32.28l-15.62,-45.31l8.78,-6.7l18.06,-13.79l19.27,-14.71l5.01,-3.83l75.61,-57.72l5.58,-4.26l39.3,-30l0.01,-0.01c0,0 42.5,69.25 104.27,48.66c61.77,-20.59 60.42,-79.63 60.42,-79.63l187.23,65.82Z" style="fill:#2f2e41;fill-rule:nonzero;"/><path d="M223.035,174.916c0,0 41.837,-90.646 122.024,-69.728c80.186,20.919 125.509,52.296 128.996,83.674c3.486,31.377 -1.744,78.443 -1.744,78.443c0,0 -8.716,-64.498 -64.498,-50.552c-55.782,13.945 -142.941,3.486 -142.941,3.486l-13.946,125.509c0,0 -15.688,-22.661 -33.12,-8.715c-17.432,13.945 -50.553,-134.226 5.229,-162.117Z" style="fill:#2f2e41;fill-rule:nonzero;"/><path d="M212.13,651.78c-3.21,-1.29 -6.397,-2.627 -9.56,-4.01c-2.16,-0.94 -4.32,-1.91 -6.46,-2.91c-32.081,-14.876 -61.636,-34.683 -87.59,-58.7c9.19,-12.52 16.72,-18.89 16.72,-18.89l61.77,0l9.26,31.14l15.86,53.37Z" style="fill:#2f2e41;fill-rule:nonzero;"/><path d="M594.67,464.32l52.99,9.36c-14.181,32.305 -33.333,62.191 -56.76,88.57l3.77,-97.93Z" style="fill:#2f2e41;fill-rule:nonzero;"/></svg>